<svg width="283" height="132" viewBox="0 0 283 132" fill="none" xmlns="http://www.w3.org/2000/svg">
<g clip-path="url(#clip0_129_3)">
<path d="M20.6402 95.1C20.6402 99.5667 18.3069 101.8 13.6402 101.8C11.3736 101.8 9.57357 101.233 8.24023 100.1C6.9069 98.9667 6.24023 97.3 6.24023 95.1V32.6C6.24023 27.4 8.67357 24.8 13.5402 24.8C18.3402 24.8 20.7402 27.4 20.7402 32.6V43.3C20.7402 45.1667 20.5402 46.9667 20.1402 48.7C19.7402 50.4333 19.0736 52.2333 18.1402 54.1C19.2736 52.7 20.7736 51.7 22.6402 51.1C24.5069 50.5 26.6736 50.2 29.1402 50.2C33.5402 50.2 37.3736 51.0667 40.6402 52.8C43.9069 54.5333 46.4402 56.9667 48.2402 60.1C50.1069 63.1667 51.0402 66.8333 51.0402 71.1V95.1C51.0402 99.5667 48.7069 101.8 44.0402 101.8C41.7736 101.8 39.9736 101.233 38.6402 100.1C37.3069 98.9667 36.6402 97.3 36.6402 95.1V71.7C36.6402 68.5667 35.9069 66.2 34.4402 64.6C33.0402 63 31.0736 62.2 28.5402 62.2C26.0736 62.2 24.1402 63.0333 22.7402 64.7C21.3402 66.3 20.6402 68.6333 20.6402 71.7V95.1ZM67.6113 101.8C66.5447 101.8 65.378 101.567 64.1113 101.1C62.9113 100.7 61.8447 100 60.9113 99C60.0447 98 59.6113 96.7333 59.6113 95.2C59.6113 92.8 60.7447 89.9 63.0113 86.5C65.3447 83.0333 68.5113 79.4 72.5113 75.6L61.9113 62C61.4447 61.3333 60.978 60.6 60.5113 59.8C60.1113 58.9333 59.9113 58.0667 59.9113 57.2C59.9113 56.2667 60.1113 55.3333 60.5113 54.4C60.978 53.4 61.7447 52.4333 62.8113 51.5C63.5447 50.9 64.278 50.5 65.0113 50.3C65.7447 50.0333 66.4447 49.9 67.1113 49.9C68.378 49.9 69.5113 50.2 70.5113 50.8C71.578 51.3333 72.378 51.9667 72.9113 52.7L83.4113 66.1C84.9447 64.3 86.278 62.4 87.4113 60.4C88.6113 58.4 89.578 56.5667 90.3113 54.9C90.978 53.3667 91.8447 52.1667 92.9113 51.3C93.978 50.3667 95.2447 49.9 96.7113 49.9C98.7113 49.9 100.511 50.5 102.111 51.7C103.711 52.8333 104.511 54.5667 104.511 56.9C104.511 59.3667 103.478 62.2 101.411 65.4C99.4113 68.6 96.3113 72.2333 92.1113 76.3L103.111 89.8C103.645 90.4 104.078 91.1333 104.411 92C104.811 92.8 105.011 93.6667 105.011 94.6C105.011 95.4667 104.778 96.4 104.311 97.4C103.911 98.3333 103.211 99.2667 102.211 100.2C101.545 100.8 100.845 101.2 100.111 101.4C99.378 101.667 98.6447 101.8 97.9113 101.8C96.6447 101.8 95.5113 101.5 94.5113 100.9C93.5113 100.3 92.7113 99.6667 92.1113 99L81.0113 85.4C79.6113 87.0667 78.2113 89.0333 76.8113 91.3C75.478 93.5667 74.3447 95.7 73.4113 97.7C72.8113 99.0333 72.0447 100.067 71.1113 100.8C70.2447 101.467 69.078 101.8 67.6113 101.8Z" fill="#1E66F5"/>
<path d="M120.771 124C115.905 124 113.471 121.4 113.471 116.2V76.8C113.471 67.7333 115.471 60.9667 119.471 56.5C123.471 52.0333 129.071 49.8 136.271 49.8C143.605 49.8 149.371 52.1333 153.571 56.8C157.838 61.4667 159.971 68.3 159.971 77.3C159.971 83.3 159.105 88.1 157.371 91.7C155.638 95.2333 153.238 97.8 150.171 99.4C147.105 101 143.571 101.8 139.571 101.8C136.105 101.8 133.238 101.3 130.971 100.3C128.771 99.3 127.038 97.7667 125.771 95.7C126.238 97.0333 126.571 98.3333 126.771 99.6C127.038 100.867 127.205 102.333 127.271 104C127.405 105.667 127.471 107.8 127.471 110.4V116.2C127.471 121.4 125.238 124 120.771 124ZM136.971 90.1C139.771 90.1 141.938 89.1333 143.471 87.2C145.071 85.2 145.871 81.4667 145.871 76C145.871 70.5333 145.071 66.8333 143.471 64.9C141.938 62.9 139.771 61.9 136.971 61.9C134.171 61.9 131.971 62.9 130.371 64.9C128.838 66.8333 128.071 70.5333 128.071 76C128.071 81.4667 128.838 85.2 130.371 87.2C131.971 89.1333 134.171 90.1 136.971 90.1ZM176.729 41.6C174.262 41.6 172.195 40.8 170.529 39.2C168.862 37.6 168.029 35.6333 168.029 33.3C168.029 30.8333 168.862 28.8 170.529 27.2C172.195 25.6 174.262 24.8 176.729 24.8C179.262 24.8 181.329 25.6 182.929 27.2C184.595 28.8 185.429 30.8333 185.429 33.3C185.429 35.6333 184.595 37.6 182.929 39.2C181.329 40.8 179.262 41.6 176.729 41.6ZM183.929 95.1C183.929 99.5667 181.595 101.8 176.929 101.8C174.662 101.8 172.862 101.267 171.529 100.2C170.195 99.0667 169.529 97.3667 169.529 95.1V57C169.529 54.8667 170.062 53.2 171.129 52C172.262 50.8 174.129 50.2 176.729 50.2C179.329 50.2 181.162 50.8 182.229 52C183.362 53.2 183.929 54.8667 183.929 57V95.1ZM201.821 101.8C197.021 101.8 194.621 99.5333 194.621 95V71C194.621 64.6 196.655 59.5333 200.721 55.8C204.855 52.0667 210.288 50.2 217.021 50.2C223.755 50.2 229.155 52.0667 233.221 55.8C237.355 59.5333 239.421 64.6 239.421 71V95C239.421 99.5333 237.021 101.8 232.221 101.8C227.421 101.8 225.021 99.5333 225.021 95V71.8C225.021 68.6667 224.321 66.3 222.921 64.7C221.521 63.0333 219.555 62.2 217.021 62.2C214.488 62.2 212.521 63.0333 211.121 64.7C209.721 66.3 209.021 68.6667 209.021 71.8V95C209.021 99.5333 206.621 101.8 201.821 101.8ZM270.935 101.8C264.735 101.8 260.135 100.333 257.135 97.4C254.201 94.4667 252.735 89.9667 252.735 83.9V63.1H250.135C245.601 63.1 243.335 61.0667 243.335 57C243.335 53 245.601 51 250.135 51H252.735V40.2C252.735 38 253.401 36.2 254.735 34.8C256.135 33.4 257.935 32.7 260.135 32.7C262.268 32.7 263.968 33.3667 265.235 34.7C266.501 35.9667 267.135 37.7333 267.135 40V44.9C267.135 47.3667 266.735 49.4 265.935 51H275.435C279.968 51 282.235 53 282.235 57C282.235 61.0667 279.968 63.1 275.435 63.1H267.135V84.2C267.135 86.2 267.368 87.6333 267.835 88.5C268.301 89.3 269.068 89.7 270.135 89.7C271.535 89.7 272.568 89.6 273.235 89.4C273.968 89.1333 274.868 89 275.935 89C277.735 89 279.168 89.3333 280.235 90C281.301 90.6 281.835 91.8667 281.835 93.8C281.835 96.5333 280.968 98.5667 279.235 99.9C277.501 101.167 274.735 101.8 270.935 101.8Z" fill="#4C4F69"/>
</g>
<defs>
<clipPath id="clip0_129_3">
<rect width="283" height="132" fill="white"/>
</clipPath>
</defs>
</svg>
